<?xml version="1.0" standalone="no"?><!DOCTYPE svg PUBLIC "-//W3C//DTD SVG 1.1//EN" "http://www.w3.org/Graphics/SVG/1.1/DTD/svg11.dtd"><svg t="1492664752571" class="icon" style="" viewBox="0 0 1024 1024" version="1.1" xmlns="http://www.w3.org/2000/svg" p-id="3412" xmlns:xlink="http://www.w3.org/1999/xlink" width="30" height="30"><defs><style type="text/css"></style></defs><path d="M787.2512 936.5504c0 40.147627-30.32064 60.2112-90.934613 60.2112-13.114027 0-33.174187-0.805547-60.207787-2.4576-27.0336-1.631573-47.121067-2.4576-60.214613-2.4576-23.773867 0-58.978987 2.880853-105.680213 8.6016-47.520427 6.567253-82.746027 9.8304-105.673387 9.8304-35.232427 0-65.549653-10.233173-90.9312-30.72-24.576-20.466347-36.864-47.9232-36.864-82.3296 0-59.787947 31.122773-137.202347 93.3888-232.2432 58.15296-78.6432 116.732587-157.689173 175.7184-237.1584 62.245547-86.821547 93.385387-151.1424 93.385387-192.9216 0-33.580373-17.206613-50.3808-51.606187-50.3808-35.232427 0-75.78624 24.999253-121.654613 74.9568C380.09856 309.459627 344.057173 334.4384 317.8496 334.4384c-19.6608 0-36.058453-6.949547-49.152-20.8896-12.288-13.919573-18.432-31.122773-18.432-51.6096 0-38.495573 12.690773-73.728 38.0928-105.6768 4.9152-5.720747 13.093547-9.8304 24.576-12.288 11.461973-2.4576 21.695147-8.178347 30.72-17.2032C417.385813 51.411627 491.513173 13.7216 566.063787 13.7216c57.33376 0 106.9056 21.715627 148.688213 65.1264 41.7792 42.605227 62.665387 92.583253 62.665387 149.9136 0 60.634453-32.365227 136.3968-97.071787 227.328l-233.472 329.3184c-12.288 17.2032-18.432 33.1776-18.432 47.9232 0 13.114027 6.147413 19.6608 18.432 19.6608 3.26656 0 12.694187-1.2288 28.265813-3.6864 87.647573-13.919573 145.401173-20.8896 173.2608-20.8896 37.666133 0 69.21216 8.6016 94.614187 25.8048C772.5056 873.076053 787.2512 900.512427 787.2512 936.5504z" p-id="3413" fill="#d81e06"></path></svg>