<?xml version="1.0" standalone="no"?><!DOCTYPE svg PUBLIC "-//W3C//DTD SVG 1.1//EN" "http://www.w3.org/Graphics/SVG/1.1/DTD/svg11.dtd"><svg t="1492664768494" class="icon" style="" viewBox="0 0 1024 1024" version="1.1" xmlns="http://www.w3.org/2000/svg" p-id="4260" xmlns:xlink="http://www.w3.org/1999/xlink" width="30" height="30"><defs><style type="text/css"></style></defs><path d="M290.905998 845.526189 565.984007 845.526189l49.182143 60.358693-30.411637 27.245528c-14.678304 12.551874-35.83209 18.819624-63.428611 18.819624L263.068999 951.950034l-43.3626-52.555983L290.905998 845.526189zM359.515608 456.669834l275.078009 0 45.952588 51.916417-64.724117 54.507428L340.74408 563.093678l-46.608527-54.507428L359.515608 456.669834zM684.431699 175.260629 409.35369 175.260629l-45.953611-52.748365 64.724117-53.67548 260.83154 0c15.525602 0 26.41358 1.407046 32.682353 4.204765 6.251378 2.797719 13.703093 9.577123 22.336728 20.354584l16.180518 21.313422L684.431699 175.260629zM584.754512 834.540997l45.313022-255.283174 64.724117-55.753815 21.233604 24.575722c11.144828 12.950963 16.724917 26.110681 16.724917 39.477107 0 5.179976-0.655939 11.640108-1.935072 19.394722l-36.82265 207.667713c-2.158153 12.087293-5.276167 21.457708-9.369392 28.14092s-11.288091 14.34266-21.617343 22.960944l-32.29759 26.526143L584.754512 834.540997zM653.364123 444.405509l45.297672-254.94753 74.445526-58.472739 15.445784 18.10024c9.865695 11.208273 14.806217 23.712051 14.806217 37.494962 0 6.043646-1.295506 15.957437-3.885494 29.739325l-33.593096 192.637392c-3.885494 19.826558-12.503778 35.783994-25.854854 47.839565l-42.00365 36.855396L653.364123 444.405509z" p-id="4261" fill="#d81e06"></path></svg>