<?xml version="1.0" standalone="no"?><!DOCTYPE svg PUBLIC "-//W3C//DTD SVG 1.1//EN" "http://www.w3.org/Graphics/SVG/1.1/DTD/svg11.dtd"><svg t="1492664781284" class="icon" style="" viewBox="0 0 1242 1024" version="1.1" xmlns="http://www.w3.org/2000/svg" p-id="5108" xmlns:xlink="http://www.w3.org/1999/xlink" width="36.38671875" height="30"><defs><style type="text/css"></style></defs><path d="M274.97388 1002.652445C274.97388 1002.652445 553.360887 712.443609 553.360887 712.443609 553.360887 712.443609 775.431307 789.363069 775.431307 789.363069 775.431307 789.363069 837.705351 720.355857 837.705351 720.355857 837.705351 720.355857 620.909763 645.298103 620.909763 645.298103 620.909763 645.298103 1229.377129 16.662263 1229.377129 16.662263 1229.377129 16.662263 1181.221017 0 1181.221017 0 1181.221017 0 43.781104 459.68608 43.781104 459.68608 43.781104 459.68608 0 520.812072 0 520.812072 0 520.812072 424.654991 667.886795 424.654991 667.886795 424.654991 667.886795 145.088904 957.661233 145.088904 957.661233 145.088904 957.661233 274.97388 1002.652445 274.97388 1002.652445ZM130.443488 475.448518C130.443488 475.448518 921.637234 152.814981 921.637234 152.814981 921.637234 152.814981 490.155991 599.996606 490.155991 599.996606 490.155991 599.996606 130.443488 475.448518 130.443488 475.448518Z" p-id="5109" fill="#d81e06"></path></svg>