<?xml version="1.0" standalone="no"?><!DOCTYPE svg PUBLIC "-//W3C//DTD SVG 1.1//EN" "http://www.w3.org/Graphics/SVG/1.1/DTD/svg11.dtd"><svg t="1492664808619" class="icon" style="" viewBox="0 0 1024 1024" version="1.1" xmlns="http://www.w3.org/2000/svg" p-id="5956" xmlns:xlink="http://www.w3.org/1999/xlink" width="30" height="30"><defs><style type="text/css"></style></defs><path d="M512.036126 4.262904c-280.448474 0-507.75516 227.360875-507.75516 507.773223 0 280.448474 227.306685 507.75516 507.75516 507.75516 280.430411 0 507.737096-227.306685 507.737096-507.75516C1019.773223 231.623778 792.466537 4.262904 512.036126 4.262904zM656.071688 599.371459c-1.011536 21.38677-5.364756 43.225119-13.113847 65.47892-7.785218 22.326054-19.417887 40.750467-34.934133 55.32743-15.552373 14.540836-34.464491 26.173505-56.772482 34.934133-22.326054 8.706439-48.011854 12.138437-77.111589 10.187617-29.117799-1.896631-56.772482-12.590016-82.96405-32.025966-26.191568-19.363697-44.164403-52.383136-53.846252-98.968001l52.383136-14.576962c13.565426 52.419263 36.848827 81.537061 69.868266 87.353396 32.96525 5.816334 59.662586 2.438525 80.019757-10.187617 20.375234-12.590016 34.952196-29.099735 43.676698-49.493032 8.724502-20.357171 12.590016-43.152866 11.650732-68.405151-1.011536-25.198095-7.785218-46.566802-20.375234-64.015805-12.644205-17.467067-28.66622-29.099735-48.029917-34.934133-19.417887-5.816334-41.256236-5.816334-65.47892 0-24.294937 5.816334-44.14634 19.417887-59.680649 40.750467l-49.474969-5.816334c3.865514-11.650732 22.271865-95.066361 55.309367-250.319139l229.943905 0 0 52.383136L450.874299 317.044417c-9.736038 52.383136-19.417887 94.14514-29.117799 125.177633 29.117799-13.565426 56.266714-19.887529 81.518998-18.930182 25.180032 1.011536 49.474969 6.827871 72.75837 17.467067 23.283401 10.693385 40.262762 25.234221 50.938084 43.658635 10.639196 18.46054 18.424413 36.884953 23.283401 55.32743C655.078215 558.151349 657.029035 578.020815 656.071688 599.371459z" p-id="5957" fill="#d81e06"></path></svg>