<?xml version="1.0" standalone="no"?><!DOCTYPE svg PUBLIC "-//W3C//DTD SVG 1.1//EN" "http://www.w3.org/Graphics/SVG/1.1/DTD/svg11.dtd"><svg t="1492664845759" class="icon" style="" viewBox="0 0 1024 1024" version="1.1" xmlns="http://www.w3.org/2000/svg" p-id="7344" xmlns:xlink="http://www.w3.org/1999/xlink" width="30" height="30"><defs><style type="text/css"></style></defs><path d="M491.353262 362.6546c217.328747 0 337.806679 87.158059 361.375467 261.393335-20.990057 233.496985-112.623034 360.03289-274.958282 379.759163-159.76061 3.236718-264.526699-14.794961-314.239937-54.250578-62.848397-49.319266-94.272084-136.399553-94.272084-261.393335 5.216815-141.330866 70.703295-330.440921 196.399065-567.174624 47.136553-69.047586 111.272269-98.639554 192.471616-88.775906 88.99387 23.042809 129.623219 88.775906 121.767298 197.278085C596.057953 176.935782 533.210579 221.323735 491.353262 362.6546zM377.441886 776.938068c15.711843 65.810868 60.208267 90.470501 133.552715 73.979922 83.775009-42.693358 129.623219-115.054409 137.479141-217.005382-13.134135-69.047586-64.197114-96.942913-153.192008-83.84357-2.639107 0-6.567579 1.694595-11.784394 4.931313-7.855922 3.313465-13.133112 4.931313-15.711843 4.931313C410.153916 606.016257 380.018571 678.299537 377.441886 776.938068z" p-id="7345" fill="#d81e06"></path></svg>