<?xml version="1.0" standalone="no"?><!DOCTYPE svg PUBLIC "-//W3C//DTD SVG 1.1//EN" "http://www.w3.org/Graphics/SVG/1.1/DTD/svg11.dtd"><svg t="1492664918042" class="icon" style="" viewBox="0 0 1024 1024" version="1.1" xmlns="http://www.w3.org/2000/svg" p-id="11899" xmlns:xlink="http://www.w3.org/1999/xlink" width="30" height="30"><defs><style type="text/css"></style></defs><path d="M239.68 920.448c0 25.088 20.288 45.376 45.376 45.376l453.824 0c25.088 0 45.376-20.288 45.376-45.376l0-149.696c0-9.984-3.2-19.136-8.64-26.624L620.864 512l154.752-232.128c5.44-7.488 8.64-16.704 8.64-26.624l0-149.696c0-25.088-20.288-45.376-45.376-45.376L285.12 58.176c-25.088 0-45.376 20.288-45.376 45.376l0 149.696c0 9.984 3.2 19.136 8.64 26.624L403.136 512l-154.752 232.128c-5.44 7.488-8.64 16.704-8.64 26.624L239.68 920.448zM584.64 784.32 439.36 784.32 512 675.328 584.64 784.32zM439.36 239.68l145.344 0L512 348.672 439.36 239.68z" p-id="11900" fill="#d81e06"></path></svg>