<?xml version="1.0" standalone="no"?><!DOCTYPE svg PUBLIC "-//W3C//DTD SVG 1.1//EN" "http://www.w3.org/Graphics/SVG/1.1/DTD/svg11.dtd"><svg t="1492664966752" class="icon" style="" viewBox="0 0 1024 1024" version="1.1" xmlns="http://www.w3.org/2000/svg" p-id="13928" xmlns:xlink="http://www.w3.org/1999/xlink" width="30" height="30"><defs><style type="text/css"></style></defs><path d="M390.976 614.4c-84.48-40.832-142.272-161.92-40.896-349.248 92.928-171.84 225.344-237.952 346.432-177.408 131.008 66.176 122.496 273.216-15.488 552-105.6 212.608-218.24 316.864-357.696 319.616-77.44 1.408-178.816-33.728-184.448-153.472-2.816-63.36 32.384-104.128 56.32-118.272 15.488-9.856 30.976-12.672 26.752 8.448-28.16 125.312 0 187.328 47.872 204.16 81.664 28.16 202.816-66.176 315.456-294.336C529.024 638.4 460.032 648.192 390.976 614.4zM667.008 128.576c-52.096-28.16-163.392 60.544-228.096 184.448-66.176 126.72-67.648 236.608-11.264 263.36 64.768 30.976 174.592-36.608 232.32-180.224C720.512 244.032 705.024 149.696 667.008 128.576z" p-id="13929" fill="#d81e06"></path></svg>