<?xml version="1.0" standalone="no"?><!DOCTYPE svg PUBLIC "-//W3C//DTD SVG 1.1//EN" "http://www.w3.org/Graphics/SVG/1.1/DTD/svg11.dtd"><svg t="1492421862691" class="icon" style="" viewBox="0 0 1024 1024" version="1.1" xmlns="http://www.w3.org/2000/svg" p-id="8694" xmlns:xlink="http://www.w3.org/1999/xlink" width="20" height="20"><defs><style type="text/css"></style></defs><path d="M789.333333 853.333333 234.666667 853.333333l-128 128L106.666667 256c0-70.4 57.6-128 128-128l554.666667 0c70.4 0 128 57.6 128 128l0 469.333333C917.333333 795.733333 859.733333 853.333333 789.333333 853.333333z" p-id="8695" fill="#a7b1c2"></path><path d="M469.333333 426.666667l85.333333 0 0 234.666667-85.333333 0 0-234.666667Z" p-id="8696" fill="#a7b1c2"></path><path d="M512 320m-42.666667 0a2 2 0 1 0 85.333333 0 2 2 0 1 0-85.333333 0Z" p-id="8697" fill="#a7b1c2"></path></svg>