<?xml version="1.0" standalone="no"?><!DOCTYPE svg PUBLIC "-//W3C//DTD SVG 1.1//EN" "http://www.w3.org/Graphics/SVG/1.1/DTD/svg11.dtd"><svg t="1492421666310" class="icon" style="" viewBox="0 0 1024 1024" version="1.1" xmlns="http://www.w3.org/2000/svg" p-id="7212" xmlns:xlink="http://www.w3.org/1999/xlink" width="20" height="20"><defs><style type="text/css"></style></defs><path d="M916.740096 741.470208 651.321344 1009.465344c-9.238528 9.285632-21.856256 14.512128-35.012608 14.512128L142.276608 1023.977472c-27.158528 0-49.168384-21.794816-49.168384-48.685056L93.108224 730.386432 93.108224 302.323712 93.108224 48.71168c0-26.90048 22.009856-48.689152 49.168384-48.689152l267.851776 0.581632 337.3056-0.581632 134.291456 0c27.15648 0 49.166336 21.788672 49.166336 48.689152l0 658.569216C930.891776 720.0768 925.802496 732.346368 916.740096 741.470208zM191.199232 537.495552l345.034752 0 0-48.809984L191.199232 488.685568 191.199232 537.495552zM831.975424 195.837952 191.199232 195.837952l0 48.805888 640.776192 0L831.975424 195.837952zM831.975424 342.265856 191.199232 342.265856l0 48.809984 640.776192 0L831.975424 342.265856zM881.532928 632.754176 566.319104 632.754176c-16.285696 0-29.50144 13.07648-29.50144 29.216768l0 312.727552 48.986112 0L585.803776 682.524672l295.727104 0L881.53088 632.754176z" p-id="7213" fill="#a7b1c2"></path></svg>