<?xml version="1.0" standalone="no"?><!DOCTYPE svg PUBLIC "-//W3C//DTD SVG 1.1//EN" "http://www.w3.org/Graphics/SVG/1.1/DTD/svg11.dtd"><svg t="1492677916156" class="icon" style="" viewBox="0 0 1024 1024" version="1.1" xmlns="http://www.w3.org/2000/svg" p-id="17007" xmlns:xlink="http://www.w3.org/1999/xlink" width="20" height="20"><defs><style type="text/css"></style></defs><path d="M958.148711 402.39265c0.067538-0.639566 0.184195-1.171686 0.184195-1.812275L904.417973 76.702939c-1.232061-7.753591-8.063653-13.415544-15.817244-13.415544L133.565507 63.287395c-7.870248 0-14.585183 5.661953-15.85613 13.415544L63.523267 403.208225c0 42.421158 21.397333 79.80458 53.991682 102.202707l0 437.514565c0 8.863878 7.142677 16.040325 16.050558 16.040325l755.035222 0c8.870018 0 16.051581-7.176446 16.051581-16.040325l0-437.749926c31.402197-21.925359 52.225455-58.378595 53.331649-100.691283 0-0.518816 0.524956-0.756223 0.524956-1.276063C958.508915 402.912489 958.217273 402.677129 958.148711 402.39265zM742.850204 95.450932l132.088364 0 48.820915 291.719015L742.850204 387.169947 742.850204 95.450932zM527.095301 95.450932l183.596482 0 0 291.719015L527.095301 387.169947 527.095301 95.450932zM709.061656 419.248549c-7.636934 43.067888-44.977377 75.845409-90.158393 75.845409-45.00603 0-82.434477-32.835849-90.061179-75.845409L709.061656 419.248549zM311.261605 95.450932l183.723372 0 0 291.719015L311.261605 387.169947 311.261605 95.450932zM493.335407 419.248549c-7.636934 43.067888-45.083801 75.845409-90.187045 75.845409s-82.550111-32.777521-90.255607-75.845409L493.335407 419.248549zM147.062915 95.450932l132.146693 0 0 291.719015L98.582761 387.169947 147.062915 95.450932zM141.057131 482.136855c-23.193235-13.519921-39.737026-36.450167-44.104497-62.888306l180.626847 0c-7.636934 43.067888-45.035706 75.845409-90.13895 75.845409-7.636934 0-15.011902-1.169639-22.367427-3.095501-0.873903-0.237407-1.669012-0.518816-2.542916-0.759293-7.122211-2.162246-14.196327-4.951779-20.950148-8.92323C141.464407 482.19723 141.182998 482.255559 141.057131 482.136855zM764.683465 926.887218l-183.703929 0L580.979536 635.202996l183.703929 0L764.683465 926.887218zM872.600313 926.887218l-75.816756 0L796.783557 619.10332c0-8.862855-7.209192-16.038278-16.068977-16.038278L564.959677 603.065042c-8.859785 0-16.098653 7.175423-16.098653 16.038278l0 307.782875L149.644717 926.886195 149.644717 521.036817c0.873903 0.295735 1.746784 0.179079 2.620687 0.475837 11.178597 3.318582 22.861684 5.705955 35.176151 5.705955 46.189995 0 86.519516-25.421996 107.819634-62.97631 21.318538 37.554314 61.72583 62.97631 107.887172 62.97631 46.171576 0 86.587054-25.421996 107.868753-63.031569 21.319561 37.609573 61.696154 63.031569 107.887172 63.031569 46.170552 0 86.537935-25.421996 107.888196-62.97631 21.347191 37.554314 61.676711 62.97631 107.896382 62.97631 12.313443 0 23.967878-2.387373 35.165918-5.7694 0.883113-0.293689 1.795902-0.116657 2.746554-0.412392L872.601336 926.887218zM880.63429 482.255559l-0.163729 0c-6.705726 3.973498-13.644765 6.773264-20.747533 8.868995-0.950651 0.290619-1.823532 0.635473-2.746554 0.873903-7.355525 1.925862-14.748912 3.095501-22.288632 3.095501-45.152363 0-82.530668-32.777521-90.207511-75.845409l180.26869 0C919.954831 446.219831 903.429459 468.90039 880.63429 482.255559zM457.188138 603.065042 241.452679 603.065042c-8.90788 0-16.098653 7.175423-16.098653 16.038278l0 215.911468c0 8.862855 7.190773 16.024975 16.098653 16.024975l215.735459 0c8.868995 0 16.098653-7.16212 16.098653-16.024975L473.286792 619.10332C473.286792 610.240465 466.057133 603.065042 457.188138 603.065042zM441.138604 818.916135 257.503237 818.916135 257.503237 635.202996l183.635367 0L441.138604 818.916135z" p-id="17008" fill="#a7b1c2"></path></svg>