<?xml version="1.0" standalone="no"?><!DOCTYPE svg PUBLIC "-//W3C//DTD SVG 1.1//EN" "http://www.w3.org/Graphics/SVG/1.1/DTD/svg11.dtd"><svg t="1492431068973" class="icon" style="" viewBox="0 0 1877 1024" version="1.1" xmlns="http://www.w3.org/2000/svg" p-id="10240" xmlns:xlink="http://www.w3.org/1999/xlink" width="109.98046875" height="60"><defs><style type="text/css"></style></defs><path d="M1578.666667 520.533333c-8.533333-8.533333-8.533333-8.533333 0 0z m-1280-17.066666c8.533333 8.533333 8.533333 8.533333 0 0z m1271.466666 8.533333c-8.533333-17.066667-25.6-34.133333-42.666666-59.733333-42.666667-42.666667-85.333333-93.866667-136.533334-136.533334-136.533333-119.466667-290.133333-187.733333-452.266666-187.733333s-307.2 76.8-452.266667 196.266667c-51.2 42.666667-93.866667 85.333333-136.533333 136.533333-17.066667 17.066667-34.133333 42.666667-42.666667 51.2 8.533333 8.533333 25.6 25.6 42.666667 59.733333 42.666667 42.666667 85.333333 93.866667 136.533333 136.533334 136.533333 119.466667 290.133333 187.733333 452.266667 187.733333s307.2-68.266667 452.266666-187.733333c51.2-42.666667 93.866667-85.333333 136.533334-136.533334 17.066667-25.6 34.133333-51.2 42.666666-59.733333zM938.666667 1024c-443.733333 0-742.4-435.2-742.4-435.2-34.133333-42.666667-34.133333-119.466667 0-162.133333 0 8.533333 298.666667-426.666667 742.4-426.666667s742.4 435.2 742.4 435.2c34.133333 42.666667 34.133333 119.466667 0 162.133333 0-8.533333-298.666667 426.666667-742.4 426.666667z" fill="#a7b1c2" p-id="10241"></path><path d="M827.733333 281.6c34.133333-17.066667 68.266667-25.6 110.933334-25.6 145.066667 0 256 110.933333 256 256s-110.933333 256-256 256-256-110.933333-256-256c0-42.666667 8.533333-76.8 25.6-110.933333 17.066667 17.066667 34.133333 25.6 59.733333 25.6 51.2 0 85.333333-34.133333 85.333333-85.333334 0-25.6-8.533333-42.666667-25.6-59.733333z" fill="#a7b1c2" p-id="10242"></path></svg>