<?xml version="1.0" standalone="no"?><!DOCTYPE svg PUBLIC "-//W3C//DTD SVG 1.1//EN" "http://www.w3.org/Graphics/SVG/1.1/DTD/svg11.dtd"><svg t="1492433457217" class="icon" style="" viewBox="0 0 1024 1024" version="1.1" xmlns="http://www.w3.org/2000/svg" p-id="4038" xmlns:xlink="http://www.w3.org/1999/xlink" width="16" height="16"><defs><style type="text/css"></style></defs><path d="M653.036 484.883c1.563 1.344 3.024 2.8 4.373 4.368l2.243 2.239c16.167 16.617 15.948 43.313-0.49 59.645l-175.722 174.82c-16.434 16.329-42.882 16.111-59.052-0.493-16.167-16.617-15.948-43.313 0.49-59.645l106.995-106.447h-397.748c-23.127 0-41.877-18.939-41.877-42.302 0-23.358 18.752-42.302 41.877-42.302h389.919l-99.075-98.827c-16.434-16.329-16.658-43.042-0.49-59.645 16.167-16.617 42.61-16.821 59.052-0.493l169.497 169.084z" p-id="4039" fill="#888888"></path><path d="M720.037 96.345h-368.997c-43.872 2.738-67.014 22.971-69.415 60.688l-0.199 4.926v179.246c-10.194 39.973-62.423 30.608-63.447-4.058v-175.191c0-2.544 0.154-5.067 0.458-7.532l0.066-1.312-0.075-0.001c2.286-36.007 15.785-64.821 40.47-86.398 22.514-19.682 51.918-30.67 88.179-32.937 1.334-0.085 2.656-0.11 3.967-0.117v-0.125h368.997c37.152 0 66.577 11.934 88.402 34.222 20.295 20.719 31.077 47.889 32.701 80.369 0.305 2.474 0.459 4.998 0.459 7.557v724.144h-0.11c0 2.271-0.124 4.555-0.378 6.868l-0.547 4.926-0.133-0.003-0.11 0.995c-5.518 42.9-22.816 71.43-47.91 90.398-22.746 17.187-48.692 23.826-76.326 24.863-2.323 0.253-4.682 0.394-7.068 0.394l-357.957-0.125c-1.312-0.001-2.636-0.035-3.967-0.117-36.255-2.257-65.661-13.25-88.179-32.937-24.684-21.577-38.181-50.39-40.47-86.398l0.075-0.001-0.066-1.312c-0.305-2.461-0.458-4.98-0.458-7.532v-175.191c1.030-34.663 53.247-44.026 63.447-4.058v179.246l0.199 4.926c2.403 37.721 25.541 57.947 69.415 60.688h357.957c34.692-0.187 62.373-12.259 68.597-60.688l0.547-4.926v-724.144c-0.349-37.615-19.222-59.325-58.111-59.325z" p-id="4040" fill="#888888"></path></svg>