<?xml version="1.0" standalone="no"?><!DOCTYPE svg PUBLIC "-//W3C//DTD SVG 1.1//EN" "http://www.w3.org/Graphics/SVG/1.1/DTD/svg11.dtd"><svg t="1492433667846" class="icon" style="" viewBox="0 0 1024 1024" version="1.1" xmlns="http://www.w3.org/2000/svg" p-id="11604" xmlns:xlink="http://www.w3.org/1999/xlink" width="25" height="25"><defs><style type="text/css"></style></defs><path d="M505.706057 74.901943C270.281143 74.901943 79.433143 265.749943 79.433143 501.174857s190.848 426.269257 426.269257 426.269257 426.269257-190.848 426.269257-426.269257S741.127314 74.901943 505.706057 74.901943zM504.963657 916.995657c-230.517029 0-417.389714-186.872686-417.389714-417.389714S274.442971 82.212571 504.963657 82.212571s417.389714 186.872686 417.389714 417.389714S735.480686 916.995657 504.963657 916.995657z" p-id="11605" fill="#888888"></path><path d="M642.336914 267.117714l-292.571429 0c-32.314514 0-58.514286 26.199771-58.514286 58.514286l0 351.085714c0 32.314514 26.199771 58.514286 58.514286 58.514286l160.914286 0 0-29.257143-160.914286 0c-16.113371 0-29.257143-13.114514-29.257143-29.257143l0-351.085714c0-16.142629 13.143771-29.257143 29.257143-29.257143l292.571429 0c16.142629 0 29.257143 13.114514 29.257143 29.257143l0 171.999086 29.257143-29.257143L700.8512 325.632C700.8512 293.317486 674.651429 267.117714 642.336914 267.117714z" p-id="11606" fill="#888888"></path><path d="M750.793143 530.432l-20.6848-20.6848c-5.716114-5.716114-13.198629-8.572343-20.6848-8.572343s-14.972343 2.856229-20.6848 8.572343l-125.600914 125.600914c-5.716114 5.716114-23.1936 27.812571-23.200914 35.298743l-14.628571 64.585143 64.570514-14.628571c0 0 29.600914-17.4848 35.313371-23.200914l125.600914-125.600914C762.221714 560.376686 762.221714 541.845943 750.793143 530.432zM614.879086 687.030857c-1.656686 1.572571-7.387429 5.441829-14.3872 9.899886l-37.898971-37.898971c3.887543-5.328457 8.213943-10.686171 10.887314-13.341257l94.570057-94.570057 41.373257 41.373257L614.879086 687.030857z" p-id="11607" fill="#888888"></path></svg>