<?xml version="1.0" standalone="no"?><!DOCTYPE svg PUBLIC "-//W3C//DTD SVG 1.1//EN" "http://www.w3.org/Graphics/SVG/1.1/DTD/svg11.dtd"><svg t="1492431292723" class="icon" style="" viewBox="0 0 1024 1024" version="1.1" xmlns="http://www.w3.org/2000/svg" p-id="2963" xmlns:xlink="http://www.w3.org/1999/xlink" width="30" height="30"><defs><style type="text/css"></style></defs><path d="M274.941 373.387c31.069-23.302 56.255-10.694 56.254 28.12v220.986c0 38.831-25.173 51.432-56.254 28.12l-128.563-96.422c-31.069-23.302-31.081-61.071 0-84.382l128.563-96.422zM90.125 137c0-25.889 20.988-46.875 46.868-46.875h750.014c25.884 0 46.868 20.981 46.868 46.875 0 25.889-20.988 46.875-46.868 46.875h-750.014c-25.884 0-46.868-20.981-46.868-46.875zM90.125 887c0-25.889 20.988-46.875 46.868-46.875h750.014c25.884 0 46.868 20.981 46.868 46.875 0 25.889-20.988 46.875-46.868 46.875h-750.014c-25.884 0-46.868-20.981-46.868-46.875zM441.687 371.374c0-25.889 20.975-46.875 46.875-46.875h374.999c25.889 0 46.875 20.981 46.875 46.875 0 25.889-20.975 46.875-46.875 46.875h-374.999c-25.889 0-46.875-20.981-46.875-46.875zM441.687 652.626c0-25.889 20.975-46.875 46.875-46.875h374.999c25.889 0 46.875 20.981 46.875 46.875 0 25.889-20.975 46.875-46.875 46.875h-374.999c-25.889 0-46.875-20.981-46.875-46.875z" p-id="2964" fill="#1296db"></path></svg>