<?xml version="1.0" standalone="no"?><!DOCTYPE svg PUBLIC "-//W3C//DTD SVG 1.1//EN" "http://www.w3.org/Graphics/SVG/1.1/DTD/svg11.dtd"><svg t="1492418233801" class="icon" style="" viewBox="0 0 1024 1024" version="1.1" xmlns="http://www.w3.org/2000/svg" p-id="1007" xmlns:xlink="http://www.w3.org/1999/xlink" width="20" height="20"><defs><style type="text/css"></style></defs><path d="M363.57 734.627v-8.212a45.967 45.967 0 0 0 0 8.212z" p-id="1008" fill="#a7b1c2"></path><path d="M346.567 546.43h18v50h-18z" p-id="1009" fill="#a7b1c2"></path><path d="M448.826 567.383c49.752-32.503 82.924-90.177 82.95-155.784-0.005-101.245-79.041-183.615-176.192-183.615-97.172 0-176.227 82.37-176.227 183.62 0 65.613 33.175 123.29 82.953 155.79-84.334 37.802-143.539 125.221-143.539 226.79l0.001 0.053h46.891l-0.001-0.043c0-109.119 85.2-197.891 189.923-197.891 104.701 0 189.88 88.772 189.885 197.886l-0.001 0.048h46.891l0.001-0.06c-0.004-101.573-59.207-188.998-143.535-226.794zM226.248 411.614c0-74.307 58.018-134.757 129.332-134.757 71.298 0 129.302 60.451 129.306 134.754-0.03 74.339-58.034 134.819-129.306 134.819-71.317 0-129.332-60.477-129.332-134.816zM880.768 331.563h-249.25c-13.807 0-25 11.193-25 25s11.193 25 25 25h249.25c13.807 0 25-11.193 25-25s-11.193-25-25-25zM880.768 497.43h-249.25c-13.807 0-25 11.193-25 25s11.193 25 25 25h249.25c13.807 0 25-11.193 25-25s-11.193-25-25-25zM880.768 663.297h-249.25c-13.807 0-25 11.193-25 25s11.193 25 25 25h249.25c13.807 0 25-11.193 25-25s-11.193-25-25-25z" p-id="1010" fill="#a7b1c2"></path></svg>